<svg xmlns="http://www.w3.org/2000/svg" xmlns:xlink="http://www.w3.org/1999/xlink" width="50" height="45" viewBox="0 0 50 45">
  <defs>
    <clipPath id="clip-path">
      <rect id="長方形_367" data-name="長方形 367" width="50" height="45" transform="translate(534.637 1652.2)" fill="#fff" opacity="0.4"/>
    </clipPath>
    <clipPath id="clip-path-2">
      <path id="パス_10596" data-name="パス 10596" d="M544.471,1678.112a.493.493,0,0,1-.233-.117l0,0-.007-.007a.42.42,0,0,1-.12-.215l-.01-.085v-9.735a.447.447,0,0,1,.383-.428l.083-.007h1.673a.457.457,0,0,1,.457.357l.008.078v7.732h4.546a.458.458,0,0,1,.457.356l.008.08v1.567a.446.446,0,0,1-.381.428l-.083.008h-6.684Zm8.451-.348-.008-.078v-9.736a.459.459,0,0,1,.41-.428l.09-.007h1.8a.486.486,0,0,1,.493.357l.009.078v9.736a.458.458,0,0,1-.41.427l-.091.008h-1.8a.488.488,0,0,1-.493-.357m11.487-9.814a.44.44,0,0,1,.37-.428l.082-.007h1.626a.448.448,0,0,1,.445.357l.008.078v9.736a.441.441,0,0,1-.37.427l-.082.008h-1.626a.406.406,0,0,1-.115-.016h-.008l-.03-.01-.013-.006a.135.135,0,0,1-.022-.009l-.01,0-.011,0-.012-.007-.014-.009-.014-.008-.065-.05-.054-.061-4.637-6.033v5.783a.44.44,0,0,1-.371.427l-.081.008h-1.627a.449.449,0,0,1-.444-.357l-.008-.078v-9.736a.442.442,0,0,1,.371-.428l.081-.007h1.643l.035,0,.012,0,.019,0a.127.127,0,0,1,.026,0l.016,0a.2.2,0,0,1,.027.009l.014.006.026.01.014.007.012.007.012.008.013.008.024.015.011.01c.008,0,.016.013.025.018l.008.008.028.027.021.025.018.022,4.631,6.026ZM568.279,1678l-.009-.01a.421.421,0,0,1-.121-.215l-.009-.085v-9.735a.417.417,0,0,1,.129-.3l.007-.009.006,0a.479.479,0,0,1,.231-.115l.091-.009h6.685a.455.455,0,0,1,.457.357l.008.078v1.568a.443.443,0,0,1-.38.428l-.084.007h-4.545v1.645h4.545a.455.455,0,0,1,.457.358l.008.078v1.568a.443.443,0,0,1-.38.427l-.084.007h-4.545v1.647h4.545a.455.455,0,0,1,.457.356l.008.08v1.567a.444.444,0,0,1-.38.428l-.084.008H568.6a.487.487,0,0,1-.324-.125m-31.794-6.054c0,9.177,8.284,16.865,19.473,18.318.759.16,1.792.491,2.052,1.128a4.613,4.613,0,0,1,.075,2.068s-.273,1.615-.332,1.959c-.1.578-.468,2.262,2.017,1.233s13.41-7.758,18.294-13.283c3.375-3.636,4.991-7.326,4.991-11.423,0-10.238-10.446-18.566-23.286-18.566s-23.286,8.328-23.286,18.566" transform="translate(-536.485 -1653.376)" fill="#a2978f" stroke="rgba(0,0,0,0)" stroke-miterlimit="10" stroke-width="1"/>
    </clipPath>
  </defs>
  <g id="マスクグループ_78" data-name="マスクグループ 78" transform="translate(-534.637 -1652.2)" clip-path="url(#clip-path)">
    <g id="グループ_627" data-name="グループ 627" transform="translate(536.485 1653.376)" clip-path="url(#clip-path-2)">
      <rect id="長方形_365" data-name="長方形 365" width="56.479" height="53.507" transform="translate(-4.954 -4.954)" fill="#a2978f" stroke="rgba(0,0,0,0)" stroke-miterlimit="10" stroke-width="1"/>
    </g>
  </g>
</svg>
