<svg xmlns="http://www.w3.org/2000/svg" xmlns:xlink="http://www.w3.org/1999/xlink" width="50" height="45" viewBox="0 0 50 45">
  <defs>
    <clipPath id="clip-path">
      <rect id="長方形_366" data-name="長方形 366" width="50" height="45" transform="translate(-116.682 -1.176)" fill="#fff" opacity="0.509"/>
    </clipPath>
    <clipPath id="clip-path-2">
      <rect id="長方形_259" data-name="長方形 259" width="43.808" height="43.333" fill="#a2978f"/>
    </clipPath>
  </defs>
  <g id="マスクグループ_82" data-name="マスクグループ 82" transform="translate(116.682 1.176)" clip-path="url(#clip-path)">
    <g id="グループ_360" data-name="グループ 360" transform="translate(-113.682)">
      <g id="グループ_359" data-name="グループ 359" transform="translate(0 0)" clip-path="url(#clip-path-2)">
        <path id="パス_117" data-name="パス 117" d="M21.9,3.9c5.851,0,6.545.022,8.854.128a12.245,12.245,0,0,1,4.069.744,7.224,7.224,0,0,1,4.157,4.112,12.005,12.005,0,0,1,.755,4.024c.1,2.283.127,2.97.127,8.754s-.022,6.471-.127,8.757a11.969,11.969,0,0,1-.755,4.022,6.7,6.7,0,0,1-1.639,2.49,6.819,6.819,0,0,1-2.518,1.624,12.318,12.318,0,0,1-4.069.744c-2.308.106-3,.125-8.854.125s-6.542-.019-8.851-.125a12.281,12.281,0,0,1-4.066-.744,6.785,6.785,0,0,1-2.521-1.624,6.7,6.7,0,0,1-1.639-2.49,11.969,11.969,0,0,1-.755-4.022c-.1-2.286-.124-2.973-.124-8.757s.019-6.471.124-8.754a12.005,12.005,0,0,1,.755-4.024A6.746,6.746,0,0,1,6.465,6.4,6.779,6.779,0,0,1,8.986,4.776a12.208,12.208,0,0,1,4.066-.744c2.308-.106,3-.128,8.851-.128m0-3.9c-5.947,0-6.694.025-9.03.131A16.287,16.287,0,0,0,7.556,1.139a10.745,10.745,0,0,0-3.881,2.5A10.594,10.594,0,0,0,1.149,7.474,15.919,15.919,0,0,0,.129,12.732C.022,15.046,0,15.784,0,21.666S.022,28.287.129,30.6a15.875,15.875,0,0,0,1.019,5.259A10.572,10.572,0,0,0,3.675,39.7a10.673,10.673,0,0,0,3.881,2.5A16.137,16.137,0,0,0,12.873,43.2c2.336.1,3.082.128,9.03.128s6.7-.025,9.03-.128a16.155,16.155,0,0,0,5.319-1.011,11.134,11.134,0,0,0,6.407-6.335A15.735,15.735,0,0,0,43.678,30.6c.1-2.313.129-3.049.129-8.934s-.025-6.621-.129-8.934a15.779,15.779,0,0,0-1.019-5.259,10.594,10.594,0,0,0-2.526-3.836,10.745,10.745,0,0,0-3.881-2.5A16.306,16.306,0,0,0,30.932.131C28.6.025,27.853,0,21.9,0" transform="translate(0 -0.001)" fill="#a2978f"/>
        <path id="パス_118" data-name="パス 118" d="M15.115,3.869A11.127,11.127,0,1,0,26.365,15,11.187,11.187,0,0,0,15.115,3.869m0,18.348a7.222,7.222,0,1,1,7.3-7.22,7.261,7.261,0,0,1-7.3,7.22" transform="translate(6.787 6.672)" fill="#a2978f"/>
        <path id="パス_119" data-name="パス 119" d="M16.5,5.355a2.629,2.629,0,1,1-2.631-2.6,2.616,2.616,0,0,1,2.631,2.6" transform="translate(19.726 4.747)" fill="#a2978f"/>
      </g>
    </g>
  </g>
</svg>
