<svg xmlns="http://www.w3.org/2000/svg" xmlns:xlink="http://www.w3.org/1999/xlink" width="38" height="38" viewBox="0 0 38 38">
  <defs>
    <clipPath id="clip-path">
      <rect id="長方形_166" data-name="長方形 166" width="24.799" height="24.252" fill="none"/>
    </clipPath>
  </defs>
  <g id="グループ_282" data-name="グループ 282" transform="translate(0.113)">
    <rect id="長方形_169" data-name="長方形 169" width="38" height="38" transform="translate(-0.113 0)" fill="#fff"/>
    <g id="グループ_274" data-name="グループ 274" transform="translate(5.348 7.073)">
      <g id="グループ_273" data-name="グループ 273" transform="translate(0 0)" clip-path="url(#clip-path)">
        <path id="パス_40" data-name="パス 40" d="M4.091,23.991a2.666,2.666,0,1,0-2.666-2.666,2.669,2.669,0,0,0,2.666,2.666m0-3.916a1.25,1.25,0,1,1-1.249,1.25,1.251,1.251,0,0,1,1.249-1.25" transform="translate(16.598 0.26)"/>
        <path id="パス_41" data-name="パス 41" d="M15.478,23.991a2.666,2.666,0,1,0-2.666-2.666,2.669,2.669,0,0,0,2.666,2.666m0-3.916a1.25,1.25,0,1,1-1.25,1.25,1.251,1.251,0,0,1,1.25-1.25" transform="translate(-6.335 0.26)"/>
        <path id="パス_42" data-name="パス 42" d="M9.366,17.8h11.19a1.9,1.9,0,0,0,1.836-1.426l2.346-9.16A1.9,1.9,0,0,0,22.91,4.847L10.313,4.8h0a.708.708,0,0,0,0,1.416l12.6.047a.48.48,0,0,1,.462.6l-2.346,9.159a.479.479,0,0,1-.464.361H9.366A.482.482,0,0,1,8.9,16L5.911,1.514A1.9,1.9,0,0,0,4.053,0H.708a.708.708,0,0,0,0,1.416H4.053a.483.483,0,0,1,.47.383L7.51,16.286A1.9,1.9,0,0,0,9.366,17.8" transform="translate(-0.001 0)"/>
      </g>
    </g>
  </g>
</svg>
