<svg xmlns="http://www.w3.org/2000/svg" xmlns:xlink="http://www.w3.org/1999/xlink" width="23" height="21" viewBox="0 0 23 21">
  <defs>
    <clipPath id="clip-path">
      <rect id="長方形_372" data-name="長方形 372" width="23" height="21" transform="translate(101 617)" fill="#fff" opacity="0.462"/>
    </clipPath>
  </defs>
  <g id="マスクグループ_88" data-name="マスクグループ 88" transform="translate(-101 -617)" clip-path="url(#clip-path)">
    <g id="グループ_279" data-name="グループ 279" transform="translate(-142.376 543.897)">
      <path id="パス_37" data-name="パス 37" d="M20.074,34.95a.6.6,0,0,1-.6-.6c0-3.99-3.916-7.236-8.728-7.236S2.017,30.36,2.017,34.35a.6.6,0,0,1-1.2,0,7.8,7.8,0,0,1,2.946-6,10.831,10.831,0,0,1,6.982-2.436,10.831,10.831,0,0,1,6.982,2.436,7.8,7.8,0,0,1,2.946,6A.6.6,0,0,1,20.074,34.95Z" transform="translate(244.559 58.784)" fill="#222020"/>
      <path id="パス_38" data-name="パス 38" d="M13.088.817A5.142,5.142,0,1,1,7.947,5.959,5.148,5.148,0,0,1,13.088.817Zm0,9.084A3.942,3.942,0,1,0,9.147,5.959,3.946,3.946,0,0,0,13.088,9.9Z" transform="translate(242.216 72.285)" fill="#222020"/>
    </g>
  </g>
</svg>
