<svg xmlns="http://www.w3.org/2000/svg" xmlns:xlink="http://www.w3.org/1999/xlink" width="50" height="45" viewBox="0 0 50 45">
  <defs>
    <clipPath id="clip-path">
      <rect id="長方形_368" data-name="長方形 368" width="50" height="45" transform="translate(238.318 0.824)" fill="#fff" opacity="0.353"/>
    </clipPath>
  </defs>
  <g id="マスクグループ_85" data-name="マスクグループ 85" transform="translate(-238.318 -0.824)" clip-path="url(#clip-path)">
    <path id="中マド_1" data-name="中マド 1" d="M24.945,34.851c-.156,0-15.647-.012-19.493-1.042a6.238,6.238,0,0,1-4.411-4.4C.012,25.57,0,17.507,0,17.426S.012,9.279,1.041,5.443a6.235,6.235,0,0,1,4.411-4.4C9.3.012,24.789,0,24.945,0S40.592.012,44.437,1.042a6.235,6.235,0,0,1,4.411,4.4c1.031,3.836,1.043,11.9,1.043,11.983s-.012,8.144-1.043,11.983a6.238,6.238,0,0,1-4.411,4.4C40.592,34.839,25.1,34.851,24.945,34.851Zm-5.1-24.78h0V24.78l13.039-7.354L19.843,10.071Z" transform="translate(238.318 6.305)" fill="#a2978f" stroke="rgba(0,0,0,0)" stroke-miterlimit="10" stroke-width="1"/>
  </g>
</svg>
