<svg xmlns="http://www.w3.org/2000/svg" xmlns:xlink="http://www.w3.org/1999/xlink" width="50" height="45" viewBox="0 0 50 45">
  <defs>
    <clipPath id="clip-path">
      <rect id="長方形_369" data-name="長方形 369" width="50" height="45" transform="translate(113.318 0.824)" fill="#fff" opacity="0.353"/>
    </clipPath>
    <clipPath id="clip-path-2">
      <rect id="長方形_258" data-name="長方形 258" width="48.831" height="39.204" fill="#a2978f"/>
    </clipPath>
  </defs>
  <g id="マスクグループ_84" data-name="マスクグループ 84" transform="translate(-113.318 -0.824)" clip-path="url(#clip-path)">
    <g id="グループ_358" data-name="グループ 358" transform="translate(114.318 4.129)">
      <g id="グループ_357" data-name="グループ 357" transform="translate(0 0)" clip-path="url(#clip-path-2)">
        <path id="パス_116" data-name="パス 116" d="M48.831,4.64A20.267,20.267,0,0,1,43.078,6.2,9.977,9.977,0,0,0,47.485.724a20.251,20.251,0,0,1-6.363,2.4A10.067,10.067,0,0,0,33.809,0,9.958,9.958,0,0,0,23.79,9.9a9.813,9.813,0,0,0,.259,2.255A28.552,28.552,0,0,1,3.4,1.812,9.832,9.832,0,0,0,6.5,15.025a10.073,10.073,0,0,1-4.538-1.239v.127A9.934,9.934,0,0,0,10,23.615a9.969,9.969,0,0,1-2.637.35,10.169,10.169,0,0,1-1.883-.178,10.007,10.007,0,0,0,9.354,6.872A20.229,20.229,0,0,1,2.39,34.9,20.921,20.921,0,0,1,0,34.76,28.617,28.617,0,0,0,15.357,39.2c18.428,0,28.505-15.082,28.505-28.159,0-.431-.009-.856-.031-1.281a20.157,20.157,0,0,0,5-5.123" transform="translate(0 -0.001)" fill="#a2978f"/>
      </g>
    </g>
  </g>
</svg>
