<svg id="グループ_270" data-name="グループ 270" xmlns="http://www.w3.org/2000/svg" xmlns:xlink="http://www.w3.org/1999/xlink" width="16" height="16" viewBox="0 0 16 16">
  <defs>
    <clipPath id="clip-path">
      <rect id="長方形_163" data-name="長方形 163" width="16" height="16" fill="#222020"/>
    </clipPath>
  </defs>
  <g id="グループ_269" data-name="グループ 269" clip-path="url(#clip-path)">
    <path id="パス_35" data-name="パス 35" d="M27.319,27.934a.613.613,0,0,1-.435-.18l-2.821-2.822a.615.615,0,0,1,.869-.869l2.822,2.821a.615.615,0,0,1-.435,1.05" transform="translate(-11.934 -11.934)" fill="#222020"/>
    <path id="パス_36" data-name="パス 36" d="M6.839,13.679a6.839,6.839,0,1,1,6.839-6.839,6.847,6.847,0,0,1-6.839,6.839m0-12.449a5.61,5.61,0,1,0,5.61,5.61,5.616,5.616,0,0,0-5.61-5.61" transform="translate(0 0)" fill="#222020"/>
  </g>
</svg>
