<svg xmlns="http://www.w3.org/2000/svg" xmlns:xlink="http://www.w3.org/1999/xlink" width="23" height="21" viewBox="0 0 23 21">
  <defs>
    <clipPath id="clip-path">
      <rect id="長方形_375" data-name="長方形 375" width="23" height="21" transform="translate(326 618)" fill="#fff" opacity="0.462"/>
    </clipPath>
  </defs>
  <g id="マスクグループ_91" data-name="マスクグループ 91" transform="translate(-326 -618)" clip-path="url(#clip-path)">
    <g id="グループ_618" data-name="グループ 618">
      <path id="パス_51" data-name="パス 51" d="M1951.114,622.842h-17a.6.6,0,1,1,0-1.2h17a.6.6,0,0,1,0,1.2Z" transform="translate(-1605.514 -0.242)" fill="#222020"/>
      <path id="パス_52" data-name="パス 52" d="M1951.114,622.842h-17a.6.6,0,1,1,0-1.2h17a.6.6,0,0,1,0,1.2Z" transform="translate(-1605.514 5.758)" fill="#222020"/>
      <path id="パス_53" data-name="パス 53" d="M1951.114,622.842h-17a.6.6,0,1,1,0-1.2h17a.6.6,0,0,1,0,1.2Z" transform="translate(-1605.514 11.758)" fill="#222020"/>
    </g>
  </g>
</svg>
