<svg xmlns="http://www.w3.org/2000/svg" xmlns:xlink="http://www.w3.org/1999/xlink" width="23" height="21" viewBox="0 0 23 21">
  <defs>
    <clipPath id="clip-path">
      <rect id="長方形_371" data-name="長方形 371" width="23" height="21" transform="translate(26 617)" fill="#fff" opacity="0.462"/>
    </clipPath>
    <clipPath id="clip-path-2">
      <rect id="長方形_177" data-name="長方形 177" width="22.395" height="17.735" fill="#222020"/>
    </clipPath>
  </defs>
  <g id="マスクグループ_87" data-name="マスクグループ 87" transform="translate(-26 -617)" clip-path="url(#clip-path)">
    <g id="グループ_298" data-name="グループ 298" transform="translate(26 619)">
      <g id="グループ_297" data-name="グループ 297" transform="translate(0 0)" clip-path="url(#clip-path-2)">
        <path id="パス_56" data-name="パス 56" d="M11.2,17.735a.624.624,0,0,1-.127-.013,23.241,23.241,0,0,0-8.819-.3,2,2,0,0,1-.3.024A1.94,1.94,0,0,1,.024,15.795a1.971,1.971,0,0,1-.024-.3V2.533A1.96,1.96,0,0,1,1.4.659,15.546,15.546,0,0,1,11.14.916L11.2.937l.059-.021A15.555,15.555,0,0,1,21,.659a1.961,1.961,0,0,1,1.4,1.875V9.377a.565.565,0,0,1-1.13,0V2.533a.825.825,0,0,0-.59-.791,14.5,14.5,0,0,0-4.18-.616c-.154,0-.308,0-.462.007a14.876,14.876,0,0,0-4.146.756l-.12.04V16.472l.207-.039a24.346,24.346,0,0,1,8.343-.128.8.8,0,0,0,.657-.186.815.815,0,0,0,.289-.627V13.919a.565.565,0,0,1,1.13,0v1.576a1.95,1.95,0,0,1-2.253,1.926,23.23,23.23,0,0,0-8.82.3.589.589,0,0,1-.114.011ZM5.875,16a24.561,24.561,0,0,1,4.55.429l.207.039V1.932l-.119-.04a14.872,14.872,0,0,0-4.152-.758c-.153,0-.3-.007-.455-.007a14.475,14.475,0,0,0-4.185.618.825.825,0,0,0-.589.79V15.491a.818.818,0,0,0,.289.627.808.808,0,0,0,.526.2.931.931,0,0,0,.129-.01,24.252,24.252,0,0,1,3.8-.3" transform="translate(0 0)" fill="#222020"/>
      </g>
    </g>
  </g>
</svg>
