<svg id="グループ_308" data-name="グループ 308" xmlns="http://www.w3.org/2000/svg" xmlns:xlink="http://www.w3.org/1999/xlink" width="21" height="21" viewBox="0 0 21 21">
  <defs>
    <clipPath id="clip-path">
      <rect id="長方形_163" data-name="長方形 163" width="21" height="21" transform="translate(0)" fill="#fff"/>
    </clipPath>
  </defs>
  <g id="グループ_269" data-name="グループ 269" clip-path="url(#clip-path)">
    <path id="パス_35" data-name="パス 35" d="M28.393,29.2a.805.805,0,0,1-.571-.236l-3.7-3.7a.807.807,0,1,1,1.141-1.141l3.7,3.7a.807.807,0,0,1-.571,1.378" transform="translate(-8.199 -8.2)" fill="#fff"/>
    <path id="パス_36" data-name="パス 36" d="M8.977,17.953a8.977,8.977,0,1,1,8.977-8.977,8.987,8.987,0,0,1-8.977,8.977m0-16.339A7.362,7.362,0,1,0,16.34,8.977,7.371,7.371,0,0,0,8.977,1.614" transform="translate(0 0)" fill="#fff"/>
  </g>
</svg>
