<svg xmlns="http://www.w3.org/2000/svg" width="52" height="52" viewBox="0 0 52 52">
  <g id="グループ_416" data-name="グループ 416" transform="translate(-306 -41)">
    <g id="楕円形_33" data-name="楕円形 33" transform="translate(306 41)" fill="#fff" stroke="#d4d2d1" stroke-width="1">
      <circle cx="26" cy="26" r="26" stroke="none"/>
      <circle cx="26" cy="26" r="25.5" fill="none"/>
    </g>
    <g id="グループ_415" data-name="グループ 415" transform="translate(2 2)">
      <path id="パス_3592" data-name="パス 3592" d="M2372.28,118.657a.6.6,0,0,1-.424-.176l-13-13a.6.6,0,1,1,.849-.849l13,13a.6.6,0,0,1-.424,1.024Z" transform="translate(-2035.28 -46.057)" fill="#222020"/>
      <path id="パス_3593" data-name="パス 3593" d="M2359.28,118.657a.6.6,0,0,1-.424-1.024l13-13a.6.6,0,1,1,.849.849l-13,13A.6.6,0,0,1,2359.28,118.657Z" transform="translate(-2035.28 -46.057)" fill="#222020"/>
    </g>
  </g>
</svg>
