<svg xmlns="http://www.w3.org/2000/svg" xmlns:xlink="http://www.w3.org/1999/xlink" width="23" height="21" viewBox="0 0 23 21">
  <defs>
    <clipPath id="clip-path">
      <rect id="長方形_374" data-name="長方形 374" width="23" height="21" transform="translate(249 618)" fill="#fff" opacity="0.462"/>
    </clipPath>
    <clipPath id="clip-path-2">
      <rect id="長方形_166" data-name="長方形 166" width="21.34" height="20.869" fill="#222020"/>
    </clipPath>
  </defs>
  <g id="マスクグループ_90" data-name="マスクグループ 90" transform="translate(-249 -618)" clip-path="url(#clip-path)">
    <g id="グループ_293" data-name="グループ 293" transform="translate(250 618)">
      <g id="グループ_273" data-name="グループ 273" transform="translate(0 0)" clip-path="url(#clip-path-2)">
        <path id="パス_40" data-name="パス 40" d="M3.719,23.248a2.294,2.294,0,1,0-2.294-2.294,2.3,2.3,0,0,0,2.294,2.294m0-3.37a1.075,1.075,0,1,1-1.075,1.076,1.077,1.077,0,0,1,1.075-1.076" transform="translate(14.084 -2.378)" fill="#222020"/>
        <path id="パス_41" data-name="パス 41" d="M15.106,23.248a2.294,2.294,0,1,0-2.294-2.294,2.3,2.3,0,0,0,2.294,2.294m0-3.37a1.075,1.075,0,1,1-1.076,1.076,1.076,1.076,0,0,1,1.076-1.076" transform="translate(-7.238 -2.378)" fill="#222020"/>
        <path id="パス_42" data-name="パス 42" d="M8.06,15.316h9.629a1.631,1.631,0,0,0,1.58-1.227l2.019-7.882a1.632,1.632,0,0,0-1.574-2.036L8.875,4.131h0a.609.609,0,0,0,0,1.219l10.839.04a.413.413,0,0,1,.4.516l-2.019,7.881a.412.412,0,0,1-.4.311H8.06a.414.414,0,0,1-.4-.329L5.087,1.3A1.639,1.639,0,0,0,3.488,0H.61a.609.609,0,0,0,0,1.219H3.488a.415.415,0,0,1,.4.33l2.57,12.466a1.637,1.637,0,0,0,1.6,1.3" transform="translate(-0.001 0)" fill="#222020"/>
      </g>
    </g>
  </g>
</svg>
