<svg xmlns="http://www.w3.org/2000/svg" width="38" height="38" viewBox="0 0 38 38">
  <g id="グループ_280" data-name="グループ 280" transform="translate(-0.332)">
    <rect id="長方形_171" data-name="長方形 171" width="38" height="38" transform="translate(0.332 0)" fill="#fff"/>
    <g id="グループ_279" data-name="グループ 279" transform="translate(7.703 6.629)">
      <path id="パス_37" data-name="パス 37" d="M23.2,36.414a.7.7,0,0,1-.7-.7c0-4.636-4.55-8.408-10.143-8.408S2.212,31.08,2.212,35.717a.7.7,0,1,1-1.395,0,9.068,9.068,0,0,1,3.424-6.973,12.587,12.587,0,0,1,8.114-2.83,12.587,12.587,0,0,1,8.114,2.83,9.068,9.068,0,0,1,3.424,6.973A.7.7,0,0,1,23.2,36.414Z" transform="translate(-0.817 -12.439)"/>
      <path id="パス_38" data-name="パス 38" d="M13.922.817A5.975,5.975,0,1,1,7.947,6.792,5.982,5.982,0,0,1,13.922.817Zm0,10.556a4.581,4.581,0,1,0-4.58-4.581A4.586,4.586,0,0,0,13.922,11.373Z" transform="translate(-2.384 -0.817)"/>
    </g>
  </g>
</svg>
