<svg xmlns="http://www.w3.org/2000/svg" width="39" height="38" viewBox="0 0 39 38">
  <g id="グループ_281" data-name="グループ 281" transform="translate(0.429)">
    <rect id="長方形_170" data-name="長方形 170" width="39" height="38" transform="translate(-0.429 0)" fill="#fff"/>
    <path id="パス_39" data-name="パス 39" d="M13.849,23.712a1.536,1.536,0,0,1-.922-.31C7.017,18.926,4.244,16.53,2.371,13.273a8.855,8.855,0,0,1-1.118-7.3,7.272,7.272,0,0,1,4-4.4,7.639,7.639,0,0,1,8.591,1.61,7.627,7.627,0,0,1,8.581-1.612l.012.006a7.274,7.274,0,0,1,4,4.4,8.841,8.841,0,0,1-1.119,7.293A17.258,17.258,0,0,1,23.635,15.7a.7.7,0,0,1-1.073-.89,15.88,15.88,0,0,0,1.554-2.228,7.5,7.5,0,0,0,1-6.17,5.9,5.9,0,0,0-3.26-3.563l-.009,0a6.257,6.257,0,0,0-4.083-.357A6.16,6.16,0,0,0,14.4,4.674a.7.7,0,0,1-1.1,0A6.254,6.254,0,0,0,5.833,2.847,5.893,5.893,0,0,0,2.58,6.4a7.509,7.509,0,0,0,1,6.175c1.752,3.046,4.438,5.358,10.189,9.713a.132.132,0,0,0,.08.027.133.133,0,0,0,.08-.027c2.306-1.746,3.816-2.937,5.049-3.98a.7.7,0,1,1,.9,1.064C18.625,20.435,17.1,21.64,14.77,23.4A1.536,1.536,0,0,1,13.849,23.712Z" transform="translate(4.926 6.893)"/>
  </g>
</svg>
