<svg xmlns="http://www.w3.org/2000/svg" viewBox="0 0 32 32"><circle cx="16" cy="16" r="16" fill="#e6ad5b"/><path d="M15.99 17.29c-.13 0-.25-.05-.34-.14a.507.507 0 01-.17-.33l-.05-.45c-.02-.27.03-.55.14-.8.18-.25.44-.44.74-.52.26-.08.49-.24.66-.45.15-.22.22-.47.21-.74.02-.34-.1-.67-.32-.92-.23-.23-.55-.36-.88-.34-.29-.01-.58.09-.81.28-.23.19-.38.45-.44.73-.04.17-.15.32-.31.4-.15.09-.34.11-.51.06a.65.65 0 01-.38-.31.75.75 0 01-.07-.51c.08-.35.24-.67.47-.95.24-.28.53-.51.87-.66.37-.17.77-.25 1.17-.25.46-.01.91.09 1.32.29.38.19.69.49.91.85.23.4.34.86.33 1.32.02.48-.14.95-.45 1.32-.32.36-.72.62-1.17.78-.12.03-.23.1-.32.19a.74.74 0 00-.09.36l-.03.31c-.01.13-.06.25-.16.33-.07.1-.2.15-.32.15m0 2.43a.91.91 0 01-.64-.27.948.948 0 010-1.31c.34-.35.89-.37 1.25-.03l.03.03c.35.37.35.95 0 1.31a.91.91 0 01-.64.27" fill="#faf8f5"/><path d="M11.36 24.51a.717.717 0 01-.72-.72v-2.11H9.2a2.16 2.16 0 01-2.2-2.1v-7.96a2.147 2.147 0 012.2-2.1h13.6a2.16 2.16 0 012.2 2.1v7.96a2.147 2.147 0 01-2.2 2.1h-9.24l-1.6 2.49c-.13.21-.36.34-.6.34z" fill="none" stroke="#faf8f5" stroke-width="1.5" stroke-miterlimit="10"/></svg>