<svg xmlns="http://www.w3.org/2000/svg" viewBox="0 0 155.21 27.65"><path d="M7.25 5.35c.64.15 1.1.69 1.15 1.34 0 .86-1.93 2.73-3 3.74.72.42 1.33 1 1.78 1.69.27-.44.71-1.07 1.54-2.55.22-.58.78-.97 1.4-.98.92-.03 1.71.66 1.81 1.58 0 .59-.27.89-1.87 2.55-.57.59-3.24 3.2-3.77 3.74 1.37-.12 2.7-.24 4.04-.39-.18-.48-.62-1.69-.62-1.81 0-.38.31-.68.68-.68.62 0 3.27 3.12 3.27 4.13a1.51 1.51 0 01-1.54 1.37c-.98 0-1.13-.62-1.4-1.6-5.58.95-8.91 1.51-9.35 1.51-.59-.06-1.03-.57-1.01-1.16a1 1 0 01.89-1.1h.06c.39-.03 2.11-.09 2.46-.09.72-.81 1.39-1.65 2.02-2.53-.41-.06-.62-.18-1.07-.77a21.95 21.95 0 00-3.38-3.63.798.798 0 01-.33-.53c.01-.34.28-.61.62-.62.74.2 1.45.5 2.11.89.68-1.04 1.24-2.14 1.69-3.3.14-.38.45-.68.83-.8H.83c-.3 0-.83-.09-.83-.69s.56-.68.83-.68h7.96c-.24-.12-1.81-2.32-2.2-2.68a.928.928 0 01-.33-.59c0-.38.31-.68.68-.68C8.11.3 9.25.7 10.33 1.22c.56.23.94.76.98 1.37a1.66 1.66 0 01-.86 1.4h5.91a.56.56 0 01-.18-.42c.28-.59.63-1.15 1.04-1.66C18.26.24 18.44 0 19.21 0c.87 0 1.61.65 1.72 1.51 0 .53-.18 1.13-3.21 2.46h8.67c.27 0 .83.09.83.68 0 .62-.59.68-.83.68h-6.35c.63.17 1.09.71 1.15 1.36 0 .92-2.05 2.85-3.09 3.8.8.53 1.6 1.07 1.81 1.75.53-.83 1.6-2.46 1.87-2.88.24-.48.74-.77 1.28-.74.9-.02 1.67.65 1.78 1.54 0 .59-.15.74-1.49 2.11-1.35 1.35-2.73 2.68-4.12 3.98 1.72-.12 2.2-.18 4.07-.36-.15-.44-.62-1.72-.62-1.87.03-.36.32-.64.68-.65.65 0 3.47 3.21 3.47 4.34-.08.87-.82 1.52-1.69 1.48-1.07 0-1.31-.65-1.51-1.96-2.23.44-8.26 1.51-8.76 1.51-.61-.05-1.07-.58-1.04-1.19-.02-.54.38-1.01.92-1.07a49.4 49.4 0 011.72-.06c.98-1.07 1.63-1.84 2.02-2.35-.59-.03-.77-.3-1.1-.77a19.916 19.916 0 00-3.62-3.83c-.13-.13-.2-.3-.21-.48 0-.34.28-.62.62-.62.8.23 1.56.58 2.26 1.04.71-1.06 1.3-2.18 1.78-3.36.16-.35.46-.62.83-.74l-11.8.04zM.06 25.36c0-.56.3-.86.74-1.34 1.01-1.08 1.81-2.32 2.38-3.68.11-.28.39-.45.68-.44.38.01.69.32.68.71v.01c-.12 1.45-.41 2.89-.86 4.28-.44 1.31-.74 1.93-1.96 1.93-.85.06-1.6-.58-1.66-1.43v-.04m9.56 1.84c-2.11 0-2.94-.8-2.94-2.64v-3.38c0-.83.24-1.81 1.57-1.81 1.31 0 1.6.92 1.6 1.81v3.39c0 .95.18 1.28 1.25 1.28h5.32c1.16 0 1.54-.21 1.93-1.84.27-1.16.42-1.81 1.54-1.81.84-.05 1.57.57 1.66 1.4-.11.82-.4 1.61-.83 2.32-.68 1.1-1.37 1.31-3.06 1.31l-8.04-.03zm3.62-4.72c-.43-.72-.91-1.41-1.45-2.05a.67.67 0 01-.15-.39c.03-.35.31-.62.65-.65.36 0 4.13 1.43 4.13 2.94-.01.9-.73 1.63-1.63 1.63-.65.01-.8-.2-1.55-1.48m12.01 3.95c-.8 0-1.1-.48-1.37-1.37-.42-1.43-.98-2.82-1.69-4.13-.09-.15-.14-.32-.15-.5 0-.38.31-.68.68-.68.74 0 4.4 3.95 4.4 4.93a1.85 1.85 0 01-1.87 1.75m21.85-.89c0 .62 0 2.05-1.54 2.05-1.6 0-1.6-1.4-1.6-2.05v-5.11a28.103 28.103 0 01-11.02 6.38.68.68 0 01-.68-.68c0-.45.3-.6.68-.77 3.51-1.66 6.83-3.68 9.15-6.77h-9.42c-.3 0-.83-.09-.83-.68s.54-.65.83-.65h11.29v-.71c0-.42 0-1.9 1.57-1.9 1.31 0 1.57.98 1.57 1.9v.71h11.17c.3 0 .83.09.83.65 0 .62-.56.68-.83.68h-9.35c.36.57 2.49 3.86 9.06 6.74.36.15.68.3.68.74.01.36-.27.67-.63.68H58c-4.1-1.12-7.86-3.27-10.9-6.24v5.03zM39 10.34c0 .51-1.66 1.9-2.26 2.44-1.04.88-2.55 2.22-3.21 2.22-.78-.06-1.37-.71-1.37-1.48.01-.59.41-1.1.98-1.25 1.66-.68 3.25-1.52 4.75-2.49.12-.08.27-.12.42-.12.37-.01.68.29.68.66.01 0 .01.01.01.02m-2.29-6.92c.95.65 1.51 1.1 1.51 1.87-.05.88-.75 1.59-1.64 1.63-.62 0-.92-.27-1.28-.86-.75-1.21-1.64-2.32-2.64-3.33a.796.796 0 01-.24-.56c.01-.37.31-.66.68-.65h.01c1.27.5 2.47 1.14 3.6 1.9m6.06.32c.34-.73.64-1.49.89-2.26A1.5 1.5 0 0145.23.23c.86-.08 1.63.54 1.72 1.4 0 .56-.3 1.01-1.51 2.11h3.53c1.96 0 2.7.71 2.7 2.35v5.88c0 1.48-.56 2.35-2.7 2.35H42.2c-1.99 0-2.7-.71-2.7-2.35V6.09c0-1.43.51-2.35 2.7-2.35h.57zm-.18 4.49h6v-1.9c0-1.01-.18-1.25-1.22-1.25h-3.56c-1.01 0-1.22.24-1.22 1.25v1.9zm6 1.36h-6v2.14c0 1.01.21 1.22 1.22 1.22h3.56c1.04 0 1.22-.21 1.22-1.22V9.59zm8.37 1.46c1.37.71 1.75 1.04 1.75 1.84-.02.86-.72 1.55-1.58 1.57-.53 0-.77-.21-1.22-.74a23.736 23.736 0 00-3.39-3.18.706.706 0 01-.27-.56c.01-.37.31-.66.68-.65h.01c1.39.46 2.74 1.03 4.02 1.72m1.28-7.76c0 .98-1.63 2.02-2.38 2.52-.8.56-1.68.99-2.61 1.28a.66.66 0 01-.65-.67v-.01a1 1 0 01.33-.62c.92-1.07 1.76-2.21 2.49-3.41.23-.38.63-.62 1.07-.65.9-.03 1.67.66 1.75 1.56m14.2 2.23c1.46 0 1.69.98 1.69 1.4 0 .65-.95 2.58-2.79 5.14.77 1.35 1.73 2.58 2.85 3.65.13.13.2.3.21.48 0 .37-.29.67-.65.68-.68 0-2.43-1.69-3.06-2.32v11.2c0 .53-.06 1.84-1.54 1.84s-1.49-1.43-1.49-1.84v-9.63c-.83.71-3.15 2.73-3.71 2.73a.689.689 0 01-.65-.68c0-.18.07-.36.21-.48a26.62 26.62 0 004.37-4.87c1.51-2.17 2.67-4.72 2.67-5.47 0-.33-.24-.47-.56-.47h-5.35c-.27 0-.83-.06-.83-.68 0-.59.53-.68.83-.68h3.24V1.96c-.14-.82.41-1.59 1.23-1.73.1-.02.19-.02.29-.02 1.49 0 1.49 1.4 1.49 1.75v3.56h1.55zm17.82-4.45c.27 0 .83.09.83.68 0 .62-.56.68-.83.68H74.52c-.3 0-.83-.09-.83-.68s.56-.68.83-.68h15.74zm.12 23.34c0 2.02-1.1 2.64-2.94 2.64H77.37c-2.08 0-2.94-.8-2.94-2.64v-7.04c0-2.02 1.07-2.64 2.94-2.64h10.07c2.08 0 2.94.8 2.94 2.64v7.04zM89.13 9.95c0 1.69-.83 2.35-2.7 2.35H78.2c-2.2 0-2.7-.95-2.7-2.35V7.43c0-1.69.83-2.35 2.7-2.35h8.23c2.02 0 2.7.77 2.7 2.35v2.52zm-8.14 10.16V16.1h-2.23c-1.1 0-1.28.33-1.28 1.28v2.73h3.51zm-3.5 1.36v2.94c0 .98.21 1.28 1.28 1.28h2.22v-4.22h-3.5zm8.52-13.78c0-1.04-.21-1.25-1.25-1.25h-4.99c-1.07 0-1.25.24-1.25 1.25v1.99c0 .98.15 1.25 1.25 1.25h4.99c1.07 0 1.25-.27 1.25-1.25V7.69zm1.25 12.42v-2.73c0-.98-.21-1.28-1.28-1.28h-2.17v4.01h3.45zm-3.44 1.36v4.22h2.17c1.07 0 1.28-.3 1.28-1.28v-2.94h-3.45zm21.73-16.01c.8-.11 1.54.46 1.65 1.26 0 .04.01.07.01.11 0 .8-1.28 3.03-3.27 5.43a19.98 19.98 0 003.03 4.22c.24.27.33.42.33.59.01.39-.3.7-.68.71-.56 0-2.91-2.14-3.62-2.91v10.76c0 .68 0 2.02-1.57 2.02-1.51 0-1.51-1.31-1.51-2.02v-9.39c-1.87 1.55-3.39 2.52-3.89 2.52a.662.662 0 01-.65-.68c0-.33.21-.5.48-.68 5.79-4.37 7.84-9.65 7.84-10.13s-.39-.48-.54-.48H96.5c-.27 0-.83-.06-.83-.65 0-.62.56-.68.83-.68h3.62V2.11c0-.56 0-1.93 1.54-1.93 1.51 0 1.51 1.4 1.51 1.93v3.35h2.38zm2.59 19.69V8.02c0-.8.21-1.87 1.54-1.87 1.54 0 1.57 1.49 1.57 1.87v17.13h2.88V2.05c0-.92.3-1.84 1.54-1.84 1.34 0 1.57 1.01 1.57 1.84v8.11h4.4c.24 0 .83.03.83.68 0 .59-.56.65-.83.65h-4.4v13.66h5.02c.27 0 .83.06.83.68s-.57.68-.83.68h-17.02c-.24 0-.83-.06-.83-.68 0-.59.57-.68.83-.68h2.9zm46.42-13.39a28.95 28.95 0 01-11.49-6.83c-.49-.5-.97-1.01-1.43-1.55a.47.47 0 00-.36-.18c-.21 0-.36.12-.57.39-3.43 3.8-7.79 6.64-12.65 8.23a.709.709 0 01-.65-.71c0-.39.33-.56.71-.74 4.02-2 7.53-4.91 10.24-8.49 1.16-1.57 1.99-1.72 2.91-1.72 1.6 0 1.96.5 3.21 2.17 2.56 3.51 6.02 6.27 10.01 7.99.33.15.71.33.71.77.01.35-.28.65-.64.67m-25.34 5.02c-.39 0-1.04 0-1.04-.68s.62-.68 1.04-.68h24.18c.39 0 1.01 0 1.01.68s-.62.68-1.01.68h-12.42a62.215 62.215 0 01-5.55 7.66c3.8-.15 7.57-.42 12.12-.74-.82-1.4-1.76-2.73-2.79-3.98-.21-.19-.34-.44-.39-.71.01-.37.31-.67.68-.68.57 0 3 2.14 3.89 2.94 1.51 1.4 3.44 3.21 3.44 4.31-.06 1.01-.91 1.8-1.93 1.78-1.04 0-1.16-.36-2.23-2.43-7.19 1.13-17.02 2.26-17.46 2.26-.64-.01-1.14-.53-1.13-1.17v-.08a1.27 1.27 0 011.04-1.28c.39-.06 1.87-.09 2.38-.12 1.42-2.51 2.69-5.09 3.8-7.75l-7.63-.01zm18.48-7.25c.39 0 1.01 0 1.01.68s-.62.68-1.01.68h-12.71c-.39 0-1.01 0-1.01-.68s.62-.68 1.01-.68h12.71z" fill="#4c4948"/></svg>