<svg xmlns="http://www.w3.org/2000/svg" xmlns:xlink="http://www.w3.org/1999/xlink" width="162" height="42.666"><defs><linearGradient id="a" x1=".5" y1="-.004" x2=".5" y2="1.358" gradientUnits="objectBoundingBox"><stop offset="0" stop-color="#facd89"/><stop offset="1" stop-color="#e7bc71"/></linearGradient><linearGradient id="b" x1="1.007" y1=".379" x2=".338" y2=".658" gradientUnits="objectBoundingBox"><stop offset="0" stop-color="#d35e69"/><stop offset="1" stop-color="#dd6b74"/></linearGradient><linearGradient id="c" x1=".121" y1=".212" x2=".792" y2=".949" xlink:href="#a"/></defs><g transform="translate(-377.63 -239.88)"><path d="M420.92 293.664a6.032 6.032 0 00.687.044 15.329 15.329 0 0015.321-14.882V274.9a2.292 2.292 0 00-2.29-2.29h-2.22a6.34 6.34 0 00-6.32 5.858 5.157 5.157 0 00-.026.484v8.913a5.839 5.839 0 01-5.152 5.799z" transform="translate(-27.3 -20.641)" fill="url(#a)"/><path d="M412.8 304.306a5.842 5.842 0 01-5.843-5.843 15.327 15.327 0 0010.582 14.572 15.327 15.327 0 0010.582-14.572v-9.043a15.328 15.328 0 01-15.321 14.886z" transform="translate(-18.496 -31.242)" fill="url(#b)"/><path d="M390.778 305.819a4.739 4.739 0 10-9.478 0 15.325 15.325 0 0020.06 14.572 15.327 15.327 0 01-10.582-14.572z" transform="translate(-2.314 -38.595)" fill="url(#c)"/><circle cx="5.119" cy="5.119" r="5.119" transform="translate(399.389 239.88)" fill="#dd6b74"/><circle cx="4.857" cy="4.857" r="4.857" transform="translate(377.63 251.105)" fill="#dd6b74"/></g><path d="M50.361 7.577c.308 0 .578.144.578.482a4 4 0 01-.78 1.551 5.2 5.2 0 001.28 1.493.356.356 0 01.174.279.261.261 0 01-.27.26 4.755 4.755 0 01-1.4-.905v3.121c0 .386 0 .521-.173.645a.744.744 0 01-.453.145c-.626 0-.626-.424-.626-.79v-2.726a5.441 5.441 0 01-1.435.944.261.261 0 01-.26-.27.348.348 0 01.192-.28 6.191 6.191 0 002.235-3.275c0-.105-.068-.135-.212-.135h-1.672c-.154 0-.4 0-.4-.269s.25-.27.4-.27h1.146V6.441c0-.385 0-.52.173-.655a.8.8 0 01.472-.144.7.7 0 01.54.241c.087.125.087.183.087.558v1.136zm2.437 6.377V9.262H51.45c-.154 0-.395 0-.395-.269s.24-.27.395-.27h1.349V6.482c0-.366-.01-.558.173-.694a.859.859 0 01.491-.154.7.7 0 01.568.26c.087.126.087.183.087.587v2.244h1.368c.135 0 .4.009.4.27s-.26.269-.4.269h-1.363v4.692h1.589c.154 0 .4 0 .4.27s-.251.27-.4.27h-4.84c-.164 0-.4 0-.4-.27s.251-.27.4-.27zm20.481-4.529a8.305 8.305 0 01-1.927-.819 8.108 8.108 0 01-2.263-1.724.228.228 0 00-.144-.058.221.221 0 00-.164.077 10.112 10.112 0 01-4.162 2.543.266.266 0 01-.251-.27c0-.153.1-.211.241-.288a10.224 10.224 0 003.265-2.765 1.056 1.056 0 011.07-.51c.664 0 .732.087 1.271.761a9.186 9.186 0 003.111 2.515.288.288 0 01.2.27.271.271 0 01-.251.269m-8.236 1.6c-.154 0-.4 0-.4-.27s.241-.27.4-.27h7.812c.154 0 .4 0 .4.27s-.241.27-.4.27h-3.955a20.6 20.6 0 01-1.724 2.369c1.175-.048 2.447-.1 3.632-.164a10.184 10.184 0 00-.8-1.252.4.4 0 01-.106-.251.269.269 0 01.27-.27 4.575 4.575 0 011.079.723c.6.481 1.386 1.233 1.386 1.685a.79.79 0 01-.809.712c-.413 0-.491-.173-.78-.838-2.023.376-5.327.78-5.5.78a.5.5 0 01-.462-.539.511.511 0 01.491-.54 15.6 15.6 0 01.675-.019c.173-.366.607-1.31 1-2.4zm5.963-2.4c.154 0 .405 0 .405.27s-.251.269-.405.269h-4.11c-.144 0-.4 0-.4-.269s.241-.27.4-.27zm14.288 2.592a.256.256 0 01-.221.115c-.192 0-.645-.395-.9-.635v3.2c0 .289 0 .741-.636.741-.607 0-.607-.433-.607-.741v-2.534a4.623 4.623 0 01-1.05.665.26.26 0 01-.27-.26.322.322 0 01.115-.241 6.335 6.335 0 002.2-3.429c0-.126-.1-.173-.221-.173h-1.559c-.116 0-.328-.029-.328-.27s.2-.26.328-.26h.79v-1.04c0-.241 0-.713.646-.713.607 0 .607.434.607.713v1.04h.559a.611.611 0 01.491.164.486.486 0 01.145.356 5.716 5.716 0 01-.954 1.859 5.672 5.672 0 00.809 1.079.578.578 0 01.087.1.855.855 0 01.972-.684h3.295c.751 0 1 .414 1 .925v2.379c0 .521-.27.925-1 .925h-3.296c-.741 0-1-.414-1-.925zm5.135-5.327c.116 0 .327.038.327.27s-.222.269-.327.269h-5.047c-.116 0-.328-.038-.328-.269s.222-.27.328-.27zm-.27 2.89c0 .568-.414.732-.847.732h-2.832c-.492 0-.848-.2-.848-.732v-.867c0-.578.414-.732.848-.732h2.832c.491 0 .847.2.847.732zm-2.812 2.013h-.511c-.221 0-.278.1-.278.28v1.011h.79zm0 1.83h-.793v1.05c0 .183.058.279.278.279h.511zm1.522-4.662c0-.193-.048-.251-.251-.251H87.13c-.211 0-.251.067-.251.251v.761c0 .193.049.26.251.26h1.484c.212 0 .251-.067.251-.26zm-.4 4.123h.838v-1.011c0-.173-.077-.28-.288-.28h-.55zm0 1.869h.55c.231 0 .288-.1.288-.279v-1.05h-.838zm11.961-2.65a3.9 3.9 0 01-1.136.723.262.262 0 01-.261-.27c0-.125.058-.173.193-.289a6.774 6.774 0 002.216-3.381.171.171 0 00-.193-.163h-1.792c-.1 0-.327-.029-.327-.27s.222-.26.327-.26h.944V6.45c0-.395 0-.819.645-.819.617 0 .626.443.626.819v.944h.578a.573.573 0 01.626.569 4.719 4.719 0 01-.857 1.666 5.468 5.468 0 00.876 1.5c.106.126.126.154.126.241a.263.263 0 01-.27.269c-.2 0-.838-.6-1.1-.876v3.073c0 .442 0 .847-.617.847s-.607-.423-.607-.847zm2.726 2.515V8.328c0-.317 0-.732.616-.732s.617.462.617.732v5.491h.713V6.382c0-.308 0-.742.636-.742s.645.492.645.742v2.533h1.271c.1 0 .327.019.327.27s-.221.269-.327.269h-1.274v4.364h1.416c.1 0 .327.019.327.27s-.222.269-.327.269h-5.453c-.106 0-.327-.029-.327-.269s.212-.27.327-.27zm14.871-3.68c-.26 0-.337-.106-.578-.472a6.378 6.378 0 00-.944-1.1.218.218 0 01-.1-.183.262.262 0 01.251-.25 4.314 4.314 0 011.146.433c.819.414.876.6.876.8a.7.7 0 01-.655.771m.905.77a24.391 24.391 0 01-.973 2.765c-.337.81-.443.944-.732.944a.727.727 0 01-.683-.684c0-.212.029-.251.356-.665a11.739 11.739 0 001.484-2.466.234.234 0 01.241-.163c.106 0 .308.087.308.269m-.462-3.285c-.251 0-.29-.058-.675-.568a8.47 8.47 0 00-.935-.973.2.2 0 01-.077-.164.285.285 0 01.279-.27 4.7 4.7 0 011.156.425c.79.385.9.558.9.8a.691.691 0 01-.645.751m2.937 2.138V7.797h-1.946c-.1 0-.328-.029-.328-.269s.222-.261.328-.261h1.946v-.79c0-.385 0-.847.665-.847s.675.5.675.847v.79h2.062c.1 0 .317.019.317.261s-.221.269-.317.269h-2.062v1.965h2.389c.1 0 .328.019.328.27s-.222.26-.328.26h-2.571a27.643 27.643 0 01-2.091 3.054c1.474-.116 2.4-.251 3.237-.366a11.148 11.148 0 00-.79-1.435c-.1-.154-.116-.164-.116-.231a.276.276 0 01.27-.27c.347 0 2.341 2.167 2.341 2.794 0 .414-.471.674-.77.674a.5.5 0 01-.453-.279c-.039-.1-.2-.588-.241-.694a41.637 41.637 0 01-4.932.963.563.563 0 01-.5-.587.461.461 0 01.183-.385c.106-.077.193-.077.982-.126a18.2 18.2 0 001.348-3.111h-1.946c-.106 0-.327-.019-.327-.27 0-.232.211-.261.327-.261zm16.184-3.322c0-.4 0-.867.665-.867.7 0 .7.423.7.867v.9c0 2.688.616 5.105 3.651 6.733a.3.3 0 01.192.26.267.267 0 01-.26.27c-.193 0-3.323-1.214-4.267-3.8-.934 2.582-4.075 3.8-4.267 3.8a.268.268 0 01-.261-.27.3.3 0 01.193-.26c3.034-1.628 3.65-4.045 3.65-6.733zM52.369 26.013a1.106 1.106 0 01.859.99c0 .638-1.431 2.025-2.223 2.773a4 4 0 011.32 1.254c.2-.33.528-.792 1.145-1.892a1.123 1.123 0 011.034-.727 1.306 1.306 0 011.342 1.166c0 .44-.2.66-1.386 1.893-.418.44-2.4 2.376-2.8 2.772 1.013-.088 2-.176 2.994-.286-.132-.352-.462-1.254-.462-1.343a.511.511 0 01.506-.506c.462 0 2.421 2.31 2.421 3.059a1.116 1.116 0 01-1.144 1.012c-.727 0-.837-.463-1.035-1.189-4.137.7-6.6 1.122-6.932 1.122a.829.829 0 01-.748-.858.745.745 0 01.7-.814 52.516 52.516 0 011.826-.066 23.03 23.03 0 001.5-1.87c-.307-.044-.462-.132-.792-.572a16.191 16.191 0 00-2.508-2.685.614.614 0 01-.243-.4.481.481 0 01.462-.463 6.164 6.164 0 011.563.66 13.136 13.136 0 001.254-2.442.973.973 0 01.617-.593h-4.022c-.221 0-.617-.066-.617-.506s.418-.506.617-.506h5.9c-.176-.088-1.342-1.717-1.628-1.98a.682.682 0 01-.242-.441.511.511 0 01.506-.506 11.892 11.892 0 012.509.88 1.18 1.18 0 01.726 1.012 1.241 1.241 0 01-.638 1.035h4.378a.409.409 0 01-.132-.308 6.047 6.047 0 01.77-1.233c.771-1.232.9-1.408 1.475-1.408a1.286 1.286 0 011.276 1.122c0 .4-.132.836-2.376 1.827h6.425c.2 0 .616.066.616.506 0 .462-.44.506-.616.506h-4.713a1.154 1.154 0 01.859 1.012c0 .682-1.518 2.113-2.289 2.816.595.4 1.189.792 1.343 1.3.4-.616 1.188-1.825 1.386-2.134a1 1 0 01.946-.55 1.3 1.3 0 011.32 1.144c0 .44-.11.55-1.1 1.562a130.122 130.122 0 01-3.059 2.949c1.276-.089 1.629-.132 3.015-.265-.11-.33-.462-1.276-.462-1.386a.525.525 0 01.507-.484c.484 0 2.574 2.377 2.574 3.213a1.211 1.211 0 01-1.254 1.1c-.792 0-.969-.484-1.123-1.452-1.65.33-6.117 1.123-6.491 1.123a.837.837 0 01-.77-.881.766.766 0 01.682-.792 29.74 29.74 0 011.276-.044 29.665 29.665 0 001.5-1.738c-.44-.022-.572-.22-.814-.572a14.922 14.922 0 00-2.685-2.839.527.527 0 01-.154-.352.464.464 0 01.462-.462 6.255 6.255 0 011.672.77 14.082 14.082 0 001.32-2.486 1.016 1.016 0 01.616-.55zm-5.325 14.831c0-.418.22-.638.55-.99a9.106 9.106 0 001.76-2.728.534.534 0 01.506-.33.515.515 0 01.506.528 13.933 13.933 0 01-.638 3.169c-.33.967-.55 1.43-1.451 1.43a1.15 1.15 0 01-1.233-1.078m7.085 1.364c-1.562 0-2.179-.594-2.179-1.958v-2.508c0-.616.177-1.343 1.166-1.343.969 0 1.188.682 1.188 1.343v2.51c0 .7.132.946.925.946h3.939c.857 0 1.144-.153 1.43-1.364.2-.858.308-1.343 1.144-1.343a1.172 1.172 0 011.233 1.034 4.413 4.413 0 01-.616 1.717c-.507.814-1.013.968-2.267.968zm2.685-3.5a11.219 11.219 0 00-1.079-1.519.465.465 0 01-.11-.286.539.539 0 01.484-.484c.264 0 3.059 1.056 3.059 2.178a1.219 1.219 0 01-1.211 1.21c-.483 0-.593-.154-1.144-1.1m8.89 2.926c-.595 0-.814-.352-1.012-1.012a15.63 15.63 0 00-1.255-3.059.816.816 0 01-.11-.374.511.511 0 01.506-.506c.55 0 3.256 2.927 3.256 3.653a1.374 1.374 0 01-1.386 1.3m16.199-.66c0 .462 0 1.518-1.144 1.518-1.189 0-1.189-1.034-1.189-1.518v-3.784a20.84 20.84 0 01-8.164 4.73.511.511 0 01-.506-.506c0-.33.22-.44.506-.572a17.52 17.52 0 006.778-5.017h-6.975c-.22 0-.616-.066-.616-.506s.4-.484.616-.484h8.362v-.524c0-.308 0-1.408 1.166-1.408.969 0 1.166.726 1.166 1.408v.528h8.274c.22 0 .616.066.616.484 0 .462-.418.506-.616.506h-6.936c.264.418 1.848 2.861 6.711 5 .264.11.506.22.506.55a.487.487 0 01-.484.506 18.553 18.553 0 01-8.075-4.621zm-6.008-11.263c0 .374-1.233 1.408-1.672 1.8-.77.66-1.893 1.651-2.377 1.651a1.09 1.09 0 01-1.012-1.1.966.966 0 01.726-.924 21.3 21.3 0 003.52-1.848.554.554 0 01.308-.088.5.5 0 01.506.506m-1.694-5.127c.7.485 1.122.814 1.122 1.386a1.283 1.283 0 01-1.21 1.21c-.462 0-.682-.2-.946-.638a13.765 13.765 0 00-1.958-2.465.57.57 0 01-.176-.418.494.494 0 01.506-.484 14.627 14.627 0 012.662 1.408m4.49.242a14.768 14.768 0 00.66-1.672 1.109 1.109 0 011.166-.924 1.17 1.17 0 011.276 1.034c0 .418-.22.749-1.122 1.562h2.618c1.451 0 2 .528 2 1.739v4.357c0 1.1-.418 1.738-2 1.738H78.27c-1.474 0-2-.527-2-1.738v-4.357c0-1.056.374-1.739 2-1.739zm-.132 3.323h4.445v-1.408c0-.748-.132-.924-.9-.924h-2.643c-.749 0-.9.176-.9.924zm4.445 1.012h-4.445v1.584c0 .748.153.9.9.9h2.643c.77 0 .9-.154.9-.9zm6.2 1.079c1.012.528 1.3.77 1.3 1.364a1.2 1.2 0 01-1.166 1.166c-.4 0-.572-.155-.9-.55a17.8 17.8 0 00-2.509-2.354.512.512 0 01-.2-.418.493.493 0 01.506-.484 20.212 20.212 0 012.971 1.276m.946-5.743c0 .726-1.211 1.5-1.761 1.87a7.11 7.11 0 01-1.936.946.492.492 0 01-.484-.506.784.784 0 01.242-.462 19.069 19.069 0 001.849-2.531 1.019 1.019 0 01.792-.484 1.282 1.282 0 011.3 1.166m10.52 1.65c1.079 0 1.254.727 1.254 1.034a10.721 10.721 0 01-2.068 3.807 12 12 0 002.113 2.707.517.517 0 01.154.352.508.508 0 01-.484.506c-.506 0-1.8-1.254-2.267-1.717v8.3c0 .4-.044 1.364-1.144 1.364s-1.1-1.056-1.1-1.364v-7.13c-.616.528-2.332 2.024-2.751 2.024a.507.507 0 01-.483-.506.453.453 0 01.154-.353 19.746 19.746 0 003.235-3.608 11.838 11.838 0 001.98-4.049c0-.242-.176-.352-.418-.352h-3.962c-.2 0-.616-.044-.616-.506 0-.44.4-.507.616-.507h2.4v-2.64a1.111 1.111 0 011.123-1.3c1.1 0 1.1 1.035 1.1 1.3v2.64zm13.2-3.3c.2 0 .616.066.616.506 0 .462-.418.506-.616.506h-11.66c-.22 0-.616-.067-.616-.506s.418-.506.616-.506zm.088 17.295c0 1.5-.814 1.958-2.179 1.958h-7.456c-1.54 0-2.178-.594-2.178-1.958v-5.215c0-1.5.792-1.958 2.178-1.958h7.459c1.541 0 2.179.594 2.179 1.958zm-.924-10.716c0 1.255-.617 1.739-2 1.739h-6.095c-1.628 0-2-.7-2-1.739v-1.87c0-1.254.616-1.738 2-1.738h6.095c1.5 0 2 .572 2 1.738zm-6.029 7.525v-2.971h-1.65c-.814 0-.946.242-.946.946v2.024zm-2.6 1.012v2.178c0 .727.154.946.946.946h1.654V37.96zm6.314-10.21c0-.77-.153-.924-.924-.924h-3.69c-.792 0-.925.176-.925.924v1.48c0 .726.111.924.925.924h3.7c.793 0 .924-.2.924-.924zm.924 9.2v-2.024c0-.726-.153-.946-.945-.946h-1.6v2.971zm-2.552 1.012v3.124h1.614c.792 0 .945-.22.945-.946v-2.178zm16.113-11.861a1.088 1.088 0 011.232 1.012c0 .595-.946 2.245-2.42 4.027a14.967 14.967 0 002.244 3.125c.176.2.242.308.242.44a.517.517 0 01-.506.528c-.418 0-2.157-1.585-2.685-2.157v7.965c0 .506 0 1.5-1.166 1.5-1.122 0-1.122-.969-1.122-1.5v-6.953a8.731 8.731 0 01-2.883 1.87.494.494 0 01-.485-.506c0-.242.154-.374.353-.506 4.291-3.235 5.809-7.151 5.809-7.5s-.286-.353-.4-.353h-4.928c-.2 0-.616-.043-.616-.484 0-.462.418-.506.616-.506h2.684v-2.487c0-.418 0-1.43 1.145-1.43 1.122 0 1.122 1.034 1.122 1.43v2.487zm1.914 14.588v-12.7c0-.594.154-1.386 1.144-1.386 1.144 0 1.166 1.1 1.166 1.386v12.7h2.134V23.57c0-.682.22-1.364 1.144-1.364.991 0 1.166.748 1.166 1.364v6.007h3.256c.176 0 .616.022.616.506 0 .441-.417.485-.616.485h-3.256v10.121h3.719c.2 0 .616.044.616.506s-.418.506-.616.506h-12.605c-.176 0-.616-.044-.616-.506 0-.44.418-.506.616-.506zm34.397-9.924A21.44 21.44 0 01153 25.704a24.05 24.05 0 01-1.056-1.144.34.34 0 00-.264-.132c-.153 0-.263.088-.418.286a21.689 21.689 0 01-9.374 6.095.53.53 0 01-.484-.528c0-.286.242-.418.528-.55a21.575 21.575 0 007.589-6.293c.858-1.166 1.474-1.276 2.156-1.276 1.188 0 1.453.374 2.377 1.607a17.973 17.973 0 007.416 5.919c.242.11.527.242.527.572a.505.505 0 01-.484.506m-18.769 3.719c-.286 0-.77 0-.77-.506s.461-.506.77-.506h17.911c.286 0 .748 0 .748.506s-.462.506-.748.506h-9.2a46.159 46.159 0 01-4.114 5.676c2.816-.11 5.611-.308 8.977-.55a22.6 22.6 0 00-2.068-2.949.9.9 0 01-.286-.528.528.528 0 01.506-.506c.418 0 2.223 1.585 2.883 2.178 1.123 1.034 2.552 2.377 2.552 3.191a1.407 1.407 0 01-1.429 1.32c-.771 0-.859-.264-1.651-1.8-5.325.836-12.608 1.673-12.938 1.673a.852.852 0 01-.836-.925.937.937 0 01.77-.946c.286-.043 1.386-.066 1.76-.088a54.091 54.091 0 002.817-5.743zm13.686-5.369c.286 0 .747 0 .747.506s-.461.506-.747.506h-9.418c-.286 0-.747 0-.747-.506s.461-.506.747-.506z" fill="#3b3938"/></svg>