<svg xmlns="http://www.w3.org/2000/svg" viewBox="0 0 129.29 12.3"><path d="M4.54 2.7c.42 0 .78.19.78.65-.19.77-.55 1.48-1.05 2.09.44.78 1.03 1.47 1.72 2.02.14.08.22.22.24.38 0 .19-.16.35-.35.35h-.01c-.7-.29-1.34-.71-1.89-1.22v4.21c0 .52 0 .7-.23.87-.18.13-.39.2-.61.19-.85 0-.85-.57-.85-1.07V7.5c-.58.52-1.23.95-1.94 1.27-.19 0-.35-.16-.35-.35v-.01c.02-.16.11-.31.26-.38a8.418 8.418 0 003.02-4.42c0-.14-.09-.18-.29-.18H.73c-.21 0-.55 0-.55-.36s.34-.37.55-.37h1.55V1.17c0-.52 0-.7.23-.88.19-.13.41-.2.64-.2.28-.01.54.11.72.32.12.17.12.25.12.75V2.7h.55zm3.29 8.61V4.98H6.01c-.21 0-.53 0-.53-.36s.32-.37.53-.37h1.82V1.22c0-.49-.01-.75.23-.94.19-.14.43-.21.66-.21.31 0 .59.13.78.36.11.17.11.25.11.79v3.03h1.85c.18 0 .55.01.55.37s-.35.36-.55.36H9.61v6.33h2.15c.21 0 .53 0 .53.36s-.34.36-.53.36H5.23c-.22 0-.55 0-.55-.36s.34-.36.55-.36h2.6zM35.47 5.2c-.91-.26-1.78-.63-2.6-1.11-1.15-.59-2.18-1.38-3.06-2.33a.273.273 0 00-.19-.08c-.08 0-.16.04-.22.1a13.555 13.555 0 01-5.62 3.43.361.361 0 01-.34-.36c0-.21.13-.29.33-.39 1.72-.92 3.22-2.19 4.41-3.73.29-.5.87-.78 1.44-.69.9 0 .99.12 1.72 1.03 1.13 1.43 2.57 2.58 4.2 3.39.16.05.27.2.27.36 0 .21-.15.37-.34.38M24.35 7.36c-.21 0-.55 0-.55-.36s.32-.36.55-.36H34.9c.21 0 .53 0 .53.36s-.33.36-.53.36h-5.34c-.7 1.12-1.48 2.19-2.33 3.2 1.59-.06 3.3-.13 4.9-.22-.32-.59-.68-1.16-1.08-1.69a.476.476 0 01-.14-.34c0-.2.16-.36.36-.36.53.25 1.02.58 1.46.97.81.65 1.87 1.66 1.87 2.27-.05.56-.53.98-1.09.96-.56 0-.66-.23-1.05-1.13-2.73.51-7.19 1.05-7.42 1.05a.657.657 0 01-.62-.71v-.02c-.02-.38.27-.7.65-.73h.01c.14-.01.78-.03.91-.03.23-.49.82-1.77 1.35-3.24l-2.99.02zm8.05-3.24c.21 0 .55 0 .55.36s-.34.37-.55.37h-5.56c-.19 0-.53 0-.53-.36s.33-.36.53-.36l5.56-.01zm19.28 3.5c-.07.1-.18.16-.3.16-.26 0-.87-.53-1.21-.86v4.32c0 .39 0 1-.86 1-.82 0-.82-.59-.82-1V7.81c-.43.36-.91.66-1.42.9a.342.342 0 01-.36-.34v-.01c0-.13.06-.25.16-.33a8.586 8.586 0 002.97-4.63c0-.17-.13-.23-.3-.23h-2.1c-.16 0-.44-.04-.44-.37s.27-.35.44-.35h1.07v-1.4c0-.33 0-.96.87-.96.82 0 .82.59.82.96v1.4h.76c.24-.03.48.05.66.22.13.13.2.3.2.48-.27.91-.71 1.76-1.29 2.51.3.53.67 1.02 1.09 1.45.04.04.08.08.12.13.12-.61.7-1.02 1.31-.92h4.45c1.01 0 1.35.56 1.35 1.25v3.21c0 .7-.37 1.25-1.35 1.25h-4.45c-1 0-1.35-.56-1.35-1.25l-.02-3.16zM58.61.43c.16 0 .44.05.44.36s-.3.36-.44.36H51.8c-.16 0-.44-.05-.44-.36s.3-.36.44-.36h6.81zm-.36 3.9c0 .77-.56.99-1.14.99h-3.82c-.66 0-1.15-.27-1.15-.99V3.16c0-.78.56-.99 1.15-.99h3.82c.66 0 1.14.27 1.14.99v1.17zm-3.8 2.72h-.69c-.3 0-.38.13-.38.38v1.36h1.07V7.05zm0 2.47h-1.06v1.42c0 .25.08.38.38.38h.69l-.01-1.8zm2.05-6.3c0-.26-.06-.34-.34-.34h-2c-.29 0-.34.09-.34.34v1.03c0 .26.06.35.34.35h2c.29 0 .34-.09.34-.35V3.22zm-.53 5.57h1.13V7.42c0-.23-.1-.38-.39-.38h-.74v1.75zm0 2.52h.74c.31 0 .39-.13.39-.38V9.52h-1.13v1.79zM72.1 7.74c-.45.41-.97.74-1.53.97a.35.35 0 01-.35-.36v-.01c0-.17.08-.23.26-.39a9.12 9.12 0 002.99-4.56.22.22 0 00-.24-.22h-2.44c-.13 0-.44-.04-.44-.36s.3-.35.44-.35h1.27V1.18c0-.53 0-1.1.87-1.1.83 0 .85.6.85 1.1v1.27h.78c.43-.04.8.27.84.7v.07c-.23.82-.62 1.58-1.16 2.25.28.73.68 1.42 1.18 2.03.14.17.17.21.17.32 0 .2-.15.36-.35.36h-.02c-.27 0-1.13-.81-1.48-1.18v4.15c0 .6 0 1.14-.83 1.14s-.82-.57-.82-1.14V7.74zm3.68 3.39V3.72c0-.43 0-.99.83-.99s.83.62.83.99v7.41h.96V1.09c0-.42 0-1 .86-1s.87.66.87 1v3.42h1.72c.13 0 .44.03.44.36s-.29.37-.43.37h-1.71v5.89h1.91c.13 0 .44.03.44.36s-.3.36-.44.36H74.7c-.14 0-.44-.04-.44-.36s.29-.36.44-.36h1.08zm20.08-4.97c-.35 0-.45-.14-.78-.64a8.56 8.56 0 00-1.27-1.48.299.299 0 01-.13-.25c.01-.18.15-.33.34-.34.54.12 1.06.32 1.55.59 1.11.56 1.18.81 1.18 1.08a.95.95 0 01-.84 1.04h-.05m1.22 1.04c-.36 1.27-.8 2.52-1.31 3.73-.46 1.09-.6 1.27-.99 1.27a.981.981 0 01-.92-.92c0-.28.04-.34.48-.9.8-1.02 1.47-2.14 2-3.33.04-.14.18-.23.32-.22.14 0 .42.12.42.37m-.63-4.44c-.34 0-.39-.08-.91-.77-.38-.47-.81-.91-1.26-1.31-.07-.05-.1-.14-.1-.22.01-.2.17-.36.37-.37.54.12 1.07.31 1.56.57 1.07.52 1.21.75 1.21 1.08.05.51-.33.97-.85 1.01 0 .01-.01.02-.02.01m3.97 2.89V3h-2.63c-.13 0-.44-.04-.44-.36s.3-.35.44-.35h2.63V1.22c0-.52 0-1.14.9-1.14s.91.68.91 1.14v1.07h2.78c.13 0 .43.03.43.35s-.3.36-.43.36h-2.78v2.65h3.22c.13 0 .44.03.44.36s-.3.35-.44.35h-3.47c-.85 1.44-1.79 2.81-2.82 4.12 1.99-.15 3.24-.34 4.37-.49-.31-.67-.66-1.32-1.07-1.94-.13-.21-.16-.22-.16-.31 0-.2.17-.36.36-.37.47 0 3.16 2.93 3.16 3.77 0 .56-.64.91-1.04.91-.26 0-.5-.14-.61-.38-.05-.13-.27-.79-.33-.94-2.19.57-4.41 1-6.66 1.3-.4-.04-.7-.39-.68-.79a.6.6 0 01.25-.52c.14-.1.26-.1 1.32-.17.74-1.34 1.35-2.75 1.82-4.2h-2.62c-.14 0-.44-.03-.44-.36 0-.31.29-.35.44-.35l3.15.01zm21.84-4.48c0-.53 0-1.17.9-1.17.95 0 .95.57.95 1.17v1.21c0 3.63.83 6.89 4.93 9.09a.4.4 0 01.26.35c0 .2-.15.36-.35.36-.26 0-4.49-1.64-5.76-5.12-1.26 3.48-5.5 5.12-5.76 5.12a.363.363 0 01-.35-.36.4.4 0 01.26-.35c4.1-2.2 4.93-5.46 4.93-9.09l-.01-1.21z" fill="#4c4948"/></svg>